<?xml version="1.0" encoding="UTF-8" standalone="no"?>
<svg
   xmlns:dc="http://purl.org/dc/elements/1.1/"
   xmlns:cc="http://creativecommons.org/ns#"
   xmlns:rdf="http://www.w3.org/1999/02/22-rdf-syntax-ns#"
   xmlns:svg="http://www.w3.org/2000/svg"
   xmlns="http://www.w3.org/2000/svg"
   xmlns:xlink="http://www.w3.org/1999/xlink"
   xmlns:sodipodi="http://sodipodi.sourceforge.net/DTD/sodipodi-0.dtd"
   xmlns:inkscape="http://www.inkscape.org/namespaces/inkscape"
   width="137.51218mm"
   height="55.359169mm"
   viewBox="0 0 137.51218 55.359169"
   version="1.1"
   id="svg8"
   inkscape:version="1.0.2 (e86c870879, 2021-01-15, custom)"
   sodipodi:docname="phipster-logo.svg">
  <defs
     id="defs2">
    <linearGradient
       id="linearGradient11301"
       inkscape:collect="always">
      <stop
         id="stop11303"
         offset="0"
         style="stop-color:#ffe052;stop-opacity:1" />
      <stop
         id="stop11305"
         offset="1"
         style="stop-color:#ffc331;stop-opacity:1" />
    </linearGradient>
    <linearGradient
       gradientUnits="userSpaceOnUse"
       y2="168.1012"
       x2="147.77737"
       y1="111.92053"
       x1="89.136749"
       id="linearGradient11307"
       xlink:href="#linearGradient11301"
       inkscape:collect="always" />
    <linearGradient
       id="linearGradient9515"
       inkscape:collect="always">
      <stop
         id="stop9517"
         offset="0"
         style="stop-color:#387eb8;stop-opacity:1" />
      <stop
         id="stop9519"
         offset="1"
         style="stop-color:#366994;stop-opacity:1" />
    </linearGradient>
    <linearGradient
       gradientUnits="userSpaceOnUse"
       y2="131.85291"
       x2="110.14919"
       y1="77.070274"
       x1="55.549179"
       id="linearGradient9521"
       xlink:href="#linearGradient9515"
       inkscape:collect="always" />
  </defs>
  <sodipodi:namedview
     id="base"
     pagecolor="#ffffff"
     bordercolor="#666666"
     borderopacity="1.0"
     inkscape:pageopacity="0.0"
     inkscape:pageshadow="2"
     inkscape:zoom="0.98994949"
     inkscape:cx="228.03895"
     inkscape:cy="98.3297"
     inkscape:document-units="mm"
     inkscape:current-layer="layer1"
     inkscape:document-rotation="0"
     showgrid="false"
     inkscape:window-width="1566"
     inkscape:window-height="977"
     inkscape:window-x="238"
     inkscape:window-y="160"
     inkscape:window-maximized="0" />
  <metadata
     id="metadata5">
    <rdf:RDF>
      <cc:Work
         rdf:about="">
        <dc:format>image/svg+xml</dc:format>
        <dc:type
           rdf:resource="http://purl.org/dc/dcmitype/StillImage" />
        <dc:title></dc:title>
      </cc:Work>
    </rdf:RDF>
  </metadata>
  <g
     inkscape:label="Layer 1"
     inkscape:groupmode="layer"
     id="layer1"
     transform="translate(-38.251871,-94.333059)">
    <path
       style="fill:#000000;stroke-width:0.264583"
       d="m 165.31615,149.14939 c 3.91452,-0.98365 7.39649,-3.52476 8.86979,-6.4731 1.34296,-2.6875 1.70919,-5.00433 1.53935,-9.73803 -0.1658,-4.62099 -0.61291,-7.3471 -2.54651,-15.52693 -3.17561,-13.43386 -3.80136,-15.91882 -4.29089,-17.03985 -0.70558,-1.61574 -2.6815,-3.58165 -4.56414,-4.54101 -8.06937,-4.11201 -26.29737,0.31786 -50.98266,12.39009 l -6.2359,3.04964 -4.80277,-2.4042 C 95.43116,105.42635 84.730103,100.88739 78.85438,98.92029 73.744577,97.20961 66.721518,95.36231 63.088452,94.77332 60.36626,94.33201 54.576328,94.3385 52.769701,94.78492 c -3.294028,0.81392 -6.382819,3.05178 -7.520077,5.44837 -0.462677,0.97502 -1.139785,3.61525 -3.428185,13.36739 -3.430823,14.62064 -4.098633,19.74267 -3.218068,24.6822 0.765691,4.29514 3.110382,7.60517 6.613651,9.33658 3.80134,1.87873 7.373485,2.35283 11.848154,1.57251 3.823856,-0.66682 11.439765,-3.19792 16.7389,-5.56306 8.072284,-3.60287 23.998886,-12.41998 32.565514,-18.02857 0.50494,-0.33058 0.94666,-0.11448 5.29167,2.58882 10.17722,6.33191 22.99177,13.20821 30.4456,16.33715 3.70011,1.55322 9.42533,3.53947 12.36761,4.2907 4.09352,1.04517 7.57981,1.15206 10.84168,0.33241 z"
       id="path24"
       sodipodi:nodetypes="ssssssscssscssssssssssss" />
    <g
       id="g1894"
       transform="matrix(0.3301109,0,0,0.3301109,74.011572,79.579554)">
      <path
         style="color:#000000;display:inline;overflow:visible;visibility:visible;opacity:1;fill:url(#linearGradient9521);fill-opacity:1;fill-rule:nonzero;stroke:none;stroke-width:1;stroke-linecap:butt;stroke-linejoin:miter;stroke-miterlimit:4;stroke-dasharray:none;stroke-dashoffset:0;stroke-opacity:1;marker:none;marker-start:none;marker-mid:none;marker-end:none"
         d="M 99.75,67.46875 C 71.718268,67.468752 73.46875,79.625 73.46875,79.625 L 73.5,92.21875 h 26.75 V 96 H 62.875 c 0,0 -17.9375,-2.034276 -17.9375,26.25 -2e-6,28.28427 15.65625,27.28125 15.65625,27.28125 h 9.34375 v -13.125 c 0,0 -0.503652,-15.65625 15.40625,-15.65625 15.9099,0 26.53125,0 26.53125,0 0,0 14.90625,0.24096 14.90625,-14.40625 0,-14.647206 0,-24.21875 0,-24.21875 0,-2e-6 2.26318,-14.65625 -27.03125,-14.65625 z M 85,75.9375 c 2.661429,-2e-6 4.8125,2.151071 4.8125,4.8125 2e-6,2.661429 -2.151071,4.8125 -4.8125,4.8125 -2.661429,2e-6 -4.8125,-2.151071 -4.8125,-4.8125 -2e-6,-2.661429 2.151071,-4.8125 4.8125,-4.8125 z"
         id="path8615" />
      <path
         id="path8620"
         d="m 100.5461,177.31485 c 28.03174,0 26.28125,-12.15625 26.28125,-12.15625 l -0.0312,-12.59375 h -26.75 v -3.78125 h 37.375 c 0,0 17.9375,2.03427 17.9375,-26.25001 10e-6,-28.284267 -15.65625,-27.281247 -15.65625,-27.281247 h -9.34375 v 13.124997 c 0,0 0.50366,15.65625 -15.40625,15.65625 -15.909902,0 -26.531252,0 -26.531252,0 0,0 -14.90625,-0.24096 -14.90625,14.40626 0,14.6472 0,24.21875 0,24.21875 0,0 -2.26318,14.65625 27.031252,14.65625 z m 14.75,-8.46875 c -2.66143,0 -4.8125,-2.15107 -4.8125,-4.8125 0,-2.66143 2.15107,-4.8125 4.8125,-4.8125 2.66143,0 4.8125,2.15107 4.8125,4.8125 1e-5,2.66143 -2.15107,4.8125 -4.8125,4.8125 z"
         style="color:#000000;display:inline;overflow:visible;visibility:visible;opacity:1;fill:url(#linearGradient11307);fill-opacity:1;fill-rule:nonzero;stroke:none;stroke-width:1;stroke-linecap:butt;stroke-linejoin:miter;stroke-miterlimit:4;stroke-dasharray:none;stroke-dashoffset:0;stroke-opacity:1;marker:none;marker-start:none;marker-mid:none;marker-end:none" />
    </g>
  </g>
</svg>
